<svg width="32" height="32" viewBox="0 0 32 32" fill="none" xmlns="http://www.w3.org/2000/svg">
<path d="M8.99968 3.33337C9.74383 3.33337 10.4807 3.47995 11.1682 3.76472C11.8557 4.0495 12.4804 4.4669 13.0066 4.9931C13.5328 5.5193 13.9502 6.14399 14.235 6.8315C14.5198 7.51901 14.6663 8.25588 14.6663 9.00004V14.6667H8.99968C7.49678 14.6667 6.05544 14.0697 4.99274 13.007C3.93003 11.9443 3.33301 10.5029 3.33301 9.00004C3.33301 7.49715 3.93003 6.05581 4.99274 4.9931C6.05544 3.9304 7.49678 3.33337 8.99968 3.33337ZM8.99968 17.3334H14.6663V23C14.6663 24.1208 14.334 25.2164 13.7113 26.1483C13.0887 27.0802 12.2037 27.8065 11.1682 28.2354C10.1328 28.6643 8.99339 28.7765 7.89417 28.5578C6.79494 28.3392 5.78524 27.7995 4.99274 27.007C4.20024 26.2145 3.66054 25.2048 3.44189 24.1056C3.22324 23.0063 3.33546 21.8669 3.76436 20.8315C4.19326 19.7961 4.91957 18.911 5.85145 18.2884C6.78332 17.6657 7.87892 17.3334 8.99968 17.3334ZM22.9997 3.33337C24.5026 3.33337 25.9439 3.9304 27.0066 4.9931C28.0693 6.05581 28.6663 7.49715 28.6663 9.00004C28.6663 10.5029 28.0693 11.9443 27.0066 13.007C25.9439 14.0697 24.5026 14.6667 22.9997 14.6667H17.333V9.00004C17.333 7.49715 17.93 6.05581 18.9927 4.9931C20.0554 3.9304 21.4968 3.33337 22.9997 3.33337ZM17.333 17.3334H22.9997C24.1204 17.3334 25.216 17.6657 26.1479 18.2884C27.0798 18.911 27.8061 19.7961 28.235 20.8315C28.6639 21.8669 28.7761 23.0063 28.5575 24.1056C28.3388 25.2048 27.7991 26.2145 27.0066 27.007C26.2141 27.7995 25.2044 28.3392 24.1052 28.5578C23.006 28.7765 21.8666 28.6643 20.8311 28.2354C19.7957 27.8065 18.9107 27.0802 18.288 26.1483C17.6654 25.2164 17.333 24.1208 17.333 23V17.3334Z" fill="#0C0407"/>
</svg>
