<svg width="32" height="32" viewBox="0 0 32 32" fill="none" xmlns="http://www.w3.org/2000/svg">
<path d="M1.33301 6.22226C1.33301 3.5222 3.52184 1.33337 6.2219 1.33337H25.7775C28.4775 1.33337 30.6663 3.5222 30.6663 6.22226V25.7778C30.6663 28.4779 28.4775 30.6667 25.7775 30.6667H6.2219C3.52184 30.6667 1.33301 28.4779 1.33301 25.7778V6.22226Z" fill="black"/>
<path d="M26.6663 16L21.6379 21.0284L20.381 19.7716L24.1526 16L20.381 12.2284L21.6379 10.9716L26.6663 16ZM7.84679 16L11.6183 19.7716L10.3615 21.0284L5.33301 16L10.3615 10.9716L11.6175 12.2284L7.84679 16ZM14.0335 24H12.1419L17.9659 8H19.8575L14.0335 24Z" fill="white"/>
</svg>
