<svg width="16" height="17" viewBox="0 0 16 17" fill="none" xmlns="http://www.w3.org/2000/svg">
<path d="M11.333 2.49984H13.9997C14.1765 2.49984 14.3461 2.57008 14.4711 2.6951C14.5961 2.82012 14.6663 2.98969 14.6663 3.1665V13.8332C14.6663 14.01 14.5961 14.1796 14.4711 14.3046C14.3461 14.4296 14.1765 14.4998 13.9997 14.4998H1.99967C1.82286 14.4998 1.65329 14.4296 1.52827 14.3046C1.40325 14.1796 1.33301 14.01 1.33301 13.8332V3.1665C1.33301 2.98969 1.40325 2.82012 1.52827 2.6951C1.65329 2.57008 1.82286 2.49984 1.99967 2.49984H4.66634V1.1665H5.99967V2.49984H9.99967V1.1665H11.333V2.49984ZM13.333 7.83317H2.66634V13.1665H13.333V7.83317ZM9.99967 3.83317H5.99967V5.1665H4.66634V3.83317H2.66634V6.49984H13.333V3.83317H11.333V5.1665H9.99967V3.83317ZM3.99967 9.1665H5.33301V10.4998H3.99967V9.1665ZM7.33301 9.1665H8.66634V10.4998H7.33301V9.1665ZM10.6663 9.1665H11.9997V10.4998H10.6663V9.1665Z" fill="#808080"/>
</svg>
