<svg width="112" height="32" viewBox="0 0 112 32" fill="none" xmlns="http://www.w3.org/2000/svg">
<path d="M1.932 26V6.456H6.384L12.6 20.988L18.816 6.456H23.24V26H19.32V13.288L14.084 26H11.116L5.852 13.288V26H1.932ZM25.2676 18.188C25.2676 13.344 28.4036 10.236 32.3516 10.236C34.8436 10.236 36.5516 11.412 37.4756 12.7V10.488H41.4236V26H37.4756V23.732C36.5516 25.076 34.7876 26.252 32.3236 26.252C28.4036 26.252 25.2676 23.032 25.2676 18.188ZM37.4756 18.244C37.4756 15.304 35.5156 13.68 33.3596 13.68C31.2596 13.68 29.2716 15.248 29.2716 18.188C29.2716 21.128 31.2596 22.808 33.3596 22.808C35.5156 22.808 37.4756 21.184 37.4756 18.244ZM48.3322 18.272V26H44.4122V10.488H48.3322V12.896C49.3122 11.3 50.9362 10.264 53.0922 10.264V14.38H52.0562C49.7322 14.38 48.3322 15.276 48.3322 18.272ZM55.5085 21.184V13.708H53.6605V10.488H55.5085V6.652H59.4565V10.488H62.9285V13.708H59.4565V21.212C59.4565 22.248 59.8765 22.696 61.1085 22.696H62.9285V26H60.4645C57.4965 26 55.5085 24.74 55.5085 21.184ZM64.9079 26V10.488H68.8279V26H64.9079ZM66.8959 8.64C65.4959 8.64 64.4879 7.632 64.4879 6.344C64.4879 5.056 65.4959 4.048 66.8959 4.048C68.2679 4.048 69.3039 5.056 69.3039 6.344C69.3039 7.632 68.2679 8.64 66.8959 8.64ZM82.7249 26V17.432C82.7249 14.94 81.3529 13.596 79.2809 13.596C77.1529 13.596 75.7809 14.94 75.7809 17.432V26H71.8609V10.488H75.7809V12.42C76.7889 11.104 78.4689 10.264 80.4569 10.264C84.0689 10.264 86.6449 12.616 86.6449 16.9V26H82.7249ZM93.6486 23.9C93.6486 25.188 92.6406 26.196 91.2686 26.196C89.8406 26.196 88.8326 25.188 88.8326 23.9C88.8326 22.612 89.8406 21.604 91.2686 21.604C92.6406 21.604 93.6486 22.612 93.6486 23.9ZM106.326 12.532C106.326 10.796 105.346 9.704 103.162 9.704H99.8861V15.444H103.162C105.346 15.444 106.326 14.296 106.326 12.532ZM95.9661 6.456H103.302C108.006 6.456 110.358 9.172 110.358 12.448C110.358 14.828 109.042 17.236 105.906 18.076L110.582 26H106.046L101.734 18.384H99.8861V26H95.9661V6.456Z" fill="white"/>
</svg>
