<svg width="32" height="32" viewBox="0 0 32 32" fill="none" xmlns="http://www.w3.org/2000/svg">
<path d="M6.5721 28.6467L14.3668 20.852C14.9338 21.004 15.5351 20.9646 16.0775 20.74C16.6199 20.5154 17.073 20.1181 17.3665 19.6097C17.6601 19.1013 17.7777 18.5103 17.701 17.9283C17.6244 17.3462 17.3579 16.8058 16.9428 16.3907C16.5277 15.9755 15.9872 15.709 15.4052 15.6324C14.8232 15.5558 14.2321 15.6734 13.7237 15.9669C13.2154 16.2605 12.8181 16.7136 12.5934 17.2559C12.3688 17.7983 12.3295 18.3996 12.4814 18.9667L4.68677 26.7613L3.27344 25.348C7.04277 20.948 8.45744 16.076 10.3428 7.90534L18.8281 6.96268L26.3708 14.5053L25.4281 22.9907C17.2574 24.876 12.3854 26.2907 7.98677 30.0613L6.5721 28.648V28.6467ZM22.1281 2.72001L30.5908 11.1813C30.678 11.2684 30.7393 11.3779 30.7681 11.4977C30.7968 11.6176 30.7917 11.743 30.7535 11.8601C30.7152 11.9773 30.6452 12.0815 30.5513 12.1613C30.4574 12.241 30.3432 12.2932 30.2214 12.312L28.2561 12.6187L20.7148 5.07734L20.9974 3.09734C21.015 2.97491 21.0663 2.85977 21.1456 2.76482C21.2248 2.66986 21.329 2.59883 21.4463 2.55968C21.5636 2.52052 21.6895 2.51478 21.81 2.54309C21.9304 2.57141 22.0405 2.63267 22.1281 2.72001Z" fill="#0C0407"/>
</svg>
